<svg width="132" height="316" viewBox="0 0 132 316" fill="none" xmlns="http://www.w3.org/2000/svg">
<path opacity="0.01" d="M78.6887 2.62103L104.381 6.23186L104.338 6.53963C80.4607 176.434 57.3024 313.474 52.5813 312.81L26.889 309.199L26.9323 308.892C50.8093 138.998 73.9676 1.95753 78.6887 2.62103Z" fill="url(#paint0_linear_0_1790)"/>
<path opacity="0.01" d="M75.7932 3.94669L101.545 7.10857L101.507 7.41399C80.8062 176.01 60.2111 312.065 55.4792 311.484L29.7277 308.322L29.7652 308.017C50.4662 139.421 71.0613 3.36568 75.7932 3.94669Z" fill="url(#paint1_linear_0_1790)"/>
<path opacity="0.01" d="M72.9463 5.32746L98.749 8.03943L98.7172 8.34239C81.1397 175.581 63.0663 310.604 58.3249 310.106L32.5222 307.394L32.554 307.091C50.1315 139.852 68.2049 4.82912 72.9463 5.32746Z" fill="url(#paint2_linear_0_1790)"/>
<path opacity="0.01" d="M70.1526 6.75832L95.9987 9.01956L95.9724 9.31996C81.4647 175.144 65.8706 309.09 61.1213 308.674L35.2752 306.413L35.3014 306.112C49.8092 140.288 65.4032 6.3428 70.1526 6.75832Z" fill="url(#paint3_linear_0_1790)"/>
<path opacity="0.01" d="M67.4101 8.238L93.2917 10.0478L93.2709 10.3456C81.7781 174.7 68.6202 307.522 63.8643 307.19L37.9827 305.38L38.0035 305.082C49.4963 140.728 62.6542 7.90543 67.4101 8.238Z" fill="url(#paint4_linear_0_1790)"/>
<path opacity="0.01" d="M64.7205 9.77189L90.6298 11.1297L90.6143 11.4247C82.0807 174.255 71.3151 305.91 66.5541 305.661L40.6448 304.303L40.6603 304.008C49.1939 141.177 59.9595 9.52238 64.7205 9.77189Z" fill="url(#paint5_linear_0_1790)"/>
<path opacity="0.01" d="M62.0837 11.3501L88.0128 12.2556L88.0026 12.5477C82.3715 173.801 73.9532 304.247 69.1887 304.08L43.2596 303.175L43.2698 302.883C48.9009 141.629 57.3192 11.1838 62.0837 11.3501Z" fill="url(#paint6_linear_0_1790)"/>
<path opacity="0.01" d="M59.5029 12.9757L85.4438 13.4285L85.4388 13.7177C82.6525 173.343 76.5362 302.538 71.7694 302.455L45.8286 302.002L45.8336 301.713C48.6199 142.087 54.7362 12.8925 59.5029 12.9757Z" fill="url(#paint7_linear_0_1790)"/>
<path opacity="0.01" d="M56.9783 14.6482L82.9231 14.6482L82.9231 14.9343C82.9231 172.882 79.0625 300.785 74.295 300.785L48.3501 300.785L48.3501 300.499C48.3501 142.552 52.2108 14.6482 56.9783 14.6482Z" fill="url(#paint8_linear_0_1790)"/>
<path opacity="0.010101" d="M54.509 16.3605L80.4499 15.9077L80.4549 16.1907C83.1817 172.413 81.5298 298.986 76.7631 299.069L50.8222 299.522L50.8173 299.239C48.0904 143.017 49.7423 16.4437 54.509 16.3605Z" fill="url(#paint9_linear_0_1790)"/>
<path opacity="0.0111111" d="M52.0977 18.1168L78.0268 17.2113L78.0365 17.4911C83.43 171.941 83.9393 297.146 79.1747 297.312L53.2457 298.218L53.2359 297.938C47.8424 143.489 47.3332 18.2832 52.0977 18.1168Z" fill="url(#paint10_linear_0_1790)"/>
<path opacity="0.0121212" d="M49.7436 19.9169L75.6529 18.559L75.6674 18.8355C83.6665 171.468 86.2887 295.269 81.5277 295.518L55.6185 296.876L55.604 296.6C47.6049 143.967 44.9826 20.1664 49.7436 19.9169Z" fill="url(#paint11_linear_0_1790)"/>
<path opacity="0.0131313" d="M47.4482 21.7532L73.3298 19.9433L73.3489 20.2165C83.8919 170.988 88.5782 293.35 83.8223 293.682L57.9407 295.492L57.9216 295.219C47.3786 144.447 42.6923 22.0857 47.4482 21.7532Z" fill="url(#paint12_linear_0_1790)"/>
<path opacity="0.0141414" d="M45.2133 23.6254L71.0594 21.3642L71.083 21.6338C84.1074 170.503 90.8084 291.391 86.059 291.807L60.2129 294.068L60.1893 293.798C47.1649 144.929 40.464 24.0409 45.2133 23.6254Z" fill="url(#paint13_linear_0_1790)"/>
<path opacity="0.0151515" d="M43.0375 25.534L68.8402 22.822L68.8682 23.0882C84.3108 170.015 92.9764 289.397 88.2351 289.895L62.4324 292.607L62.4044 292.341C46.9618 145.414 38.2961 26.0323 43.0375 25.534Z" fill="url(#paint14_linear_0_1790)"/>
<path opacity="0.0161616" d="M40.9206 27.4804L66.6721 24.3186L66.7043 24.5811C84.5013 169.526 95.0812 287.371 90.3493 287.952L64.5978 291.114L64.5656 290.851C46.7685 145.906 36.1887 28.0614 40.9206 27.4804Z" fill="url(#paint15_linear_0_1790)"/>
<path opacity="0.0171717" d="M38.8667 29.4583L64.559 25.8475L64.5954 26.1064C84.6825 169.034 97.1257 285.311 92.4046 285.974L66.7122 289.585L66.6758 289.326C46.5887 146.399 34.1456 30.1218 38.8667 29.4583Z" fill="url(#paint16_linear_0_1790)"/>
<path opacity="0.0181818" d="M36.8746 31.4682L62.5 27.4096L62.5404 27.6648C84.8526 168.538 99.1076 283.22 94.3988 283.965L68.7734 288.024L68.7329 287.769C46.4207 146.895 32.1658 32.214 36.8746 31.4682Z" fill="url(#paint17_linear_0_1790)"/>
<path opacity="0.0191919" d="M34.9437 33.5067L60.4943 29.0014L60.5387 29.2528C85.0105 168.04 101.025 281.097 96.3303 281.925L70.7797 286.43L70.7353 286.179C46.2635 147.392 30.2486 34.3345 34.9437 33.5067Z" fill="url(#paint18_linear_0_1790)"/>
<path opacity="0.020202" d="M33.0738 35.5753L58.542 30.6248L58.5901 30.8724C85.1557 167.54 102.878 278.948 98.1984 279.858L72.7302 284.808L72.6821 284.561C46.1166 147.893 28.3939 36.485 33.0738 35.5753Z" fill="url(#paint19_linear_0_1790)"/>
<path opacity="0.0212121" d="M31.2682 37.6705L56.646 32.2762L56.6978 32.5199C85.2906 167.038 104.668 276.772 100.005 277.763L74.6271 283.157L74.5753 282.914C45.9825 148.395 26.6048 38.6617 31.2682 37.6705Z" fill="url(#paint20_linear_0_1790)"/>
<path opacity="0.0222222" d="M29.5248 39.7898L54.8047 33.9535L54.86 34.1933C85.4133 166.534 106.393 274.57 101.748 275.642L76.4679 281.478L76.4126 281.239C45.8593 148.898 24.8795 40.8623 29.5248 39.7898Z" fill="url(#paint21_linear_0_1790)"/>
<path opacity="0.0232323" d="M27.845 41.9349L53.0192 35.6583L53.0779 35.8941C85.5244 166.03 108.053 272.346 103.427 273.499L78.2531 279.776L78.1943 279.54C45.7478 149.404 23.2191 43.0883 27.845 41.9349Z" fill="url(#paint22_linear_0_1790)"/>
<path opacity="0.0242424" d="M26.2288 44.0998L51.2896 37.3848L51.3517 37.6165C85.6239 165.522 109.648 270.097 105.043 271.331L79.982 278.046L79.92 277.814C45.6477 149.909 21.6238 45.3337 26.2288 44.0998Z" fill="url(#paint23_linear_0_1790)"/>
<path opacity="0.0252525" d="M24.6767 46.287L49.6164 39.1357L49.6817 39.3633C85.7118 165.015 111.177 267.83 106.595 269.144L81.6548 276.296L81.5895 276.068C45.5594 150.416 20.0939 47.6011 24.6767 46.287Z" fill="url(#paint24_linear_0_1790)"/>
<path opacity="0.0262626" d="M23.1895 48.4922L48.0007 40.9066L48.069 41.1301C85.789 164.507 112.642 265.543 108.083 266.937L83.2717 274.523L83.2034 274.299C45.4834 150.923 18.6304 49.886 23.1895 48.4922Z" fill="url(#paint25_linear_0_1790)"/>
<path opacity="0.0272727" d="M21.7671 50.7173L46.4421 42.6999L46.5133 42.9193C85.8548 164 114.041 263.242 109.507 264.715L84.8321 272.733L84.7608 272.513C45.4193 151.433 17.2329 52.1906 21.7671 50.7173Z" fill="url(#paint26_linear_0_1790)"/>
<path opacity="0.0282828" d="M20.4078 52.9538L44.9391 44.5069L45.0132 44.7221C85.9078 163.488 115.373 260.92 110.865 262.472L86.3341 270.919L86.26 270.704C45.3655 151.938 15.9001 54.5059 20.4078 52.9538Z" fill="url(#paint27_linear_0_1790)"/>
<path opacity="0.0292929" d="M19.1132 55.2098L43.4934 46.3361L43.5702 46.5471C85.9491 162.982 116.639 258.59 112.159 260.22L87.7789 269.094L87.7021 268.883C45.3232 152.448 14.6333 56.8404 19.1132 55.2098Z" fill="url(#paint28_linear_0_1790)"/>
<path opacity="0.030303" d="M17.8837 57.4768L42.1053 48.179L42.1846 48.3856C85.9792 162.475 117.839 256.245 113.388 257.954L89.1667 267.252L89.0874 267.045C45.2928 152.956 13.4329 59.1853 17.8837 57.4768Z" fill="url(#paint29_linear_0_1790)"/>
<path opacity="0.0313131" d="M16.7186 59.7539L40.7742 50.0348L40.856 50.2372C85.9975 161.966 118.973 253.889 114.552 255.675L90.4968 265.394L90.415 265.191C45.2735 153.462 12.2982 61.5399 16.7186 59.7539Z" fill="url(#paint30_linear_0_1790)"/>
<path opacity="0.0323232" d="M15.6195 62.0449L39.5019 51.9074L39.586 52.1055C86.0055 161.463 120.041 251.527 115.653 253.39L91.7706 263.528L91.6866 263.33C45.267 153.972 11.231 63.9077 15.6195 62.0449Z" fill="url(#paint31_linear_0_1790)"/>
<path opacity="0.0333333" d="M14.5841 64.3375L38.2859 53.7847L38.3722 53.9785C86.0009 160.954 121.043 249.152 116.688 251.091L92.9859 261.644L92.8996 261.45C45.2708 154.474 10.2288 66.2766 14.5841 64.3375Z" fill="url(#paint32_linear_0_1790)"/>
<path opacity="0.0343434" d="M13.6143 66.6405L37.1283 55.6757L37.2167 55.8652C85.9858 160.451 121.979 246.774 117.659 248.789L94.1445 259.754L94.0562 259.565C45.287 154.979 9.2935 68.6553 13.6143 66.6405Z" fill="url(#paint33_linear_0_1790)"/>
<path opacity="0.0353535" d="M12.7083 68.9483L36.0273 57.5748L36.1176 57.7599C85.9585 159.949 122.849 244.392 118.564 246.482L95.2449 257.856L95.1546 257.67C45.3137 155.481 8.4233 71.0382 12.7083 68.9483Z" fill="url(#paint34_linear_0_1790)"/>
<path opacity="0.0363636" d="M11.8669 71.2598L34.9839 59.4811L35.076 59.6619C85.9201 159.449 123.653 242.008 119.405 244.172L96.288 255.951L96.1959 255.77C45.3519 155.983 7.61906 73.4242 11.8669 71.2598Z" fill="url(#paint35_linear_0_1790)"/>
<path opacity="0.0373737" d="M11.0897 73.5722L33.9976 61.3918L34.0914 61.5682C85.8702 158.95 124.391 239.621 120.182 241.859L97.2737 254.039L97.1799 253.863C45.4011 156.481 6.88023 75.8104 11.0897 73.5722Z" fill="url(#paint36_linear_0_1790)"/>
<path opacity="0.0383838" d="M10.3773 75.8875L33.0692 63.3092L33.1646 63.4812C85.8099 158.456 125.065 237.236 120.895 239.548L98.203 252.126L98.1076 251.954C45.4623 156.979 6.2076 78.1988 10.3773 75.8875Z" fill="url(#paint37_linear_0_1790)"/>
<path opacity="0.0393939" d="M9.72892 78.1978L32.1978 65.2254L32.2946 65.3931C85.7385 157.961 125.673 234.85 121.544 237.234L99.0753 250.207L98.9785 250.039C45.5346 157.471 5.60015 80.5816 9.72892 78.1978Z" fill="url(#paint38_linear_0_1790)"/>
<path opacity="0.040404" d="M9.1424 80.505L31.3815 67.1424L31.4796 67.3057C85.6542 157.467 126.215 232.467 122.128 234.923L99.8891 248.285L99.791 248.122C45.6163 157.96 5.05586 82.9604 9.1424 80.505Z" fill="url(#paint39_linear_0_1790)"/>
<path opacity="0.0414141" d="M8.62062 82.8101L30.6231 69.0615L30.7224 69.2205C85.5604 156.98 126.693 230.091 122.65 232.618L100.648 246.366L100.548 246.207C45.7104 158.448 4.57756 85.3365 8.62062 82.8101Z" fill="url(#paint40_linear_0_1790)"/>
<path opacity="0.0424242" d="M8.16284 85.1115L29.922 70.9809L30.0224 71.1356C85.4567 156.497 127.109 227.724 123.11 230.32L101.351 244.451L101.251 244.296C45.8164 158.935 4.16449 87.7081 8.16284 85.1115Z" fill="url(#paint41_linear_0_1790)"/>
<path opacity="0.0434343" d="M7.7659 87.4055L29.2751 72.8973L29.3765 73.0476C85.3404 156.017 127.458 225.364 123.506 228.03L101.997 242.538L101.895 242.388C45.9314 159.418 3.81347 90.0714 7.7659 87.4055Z" fill="url(#paint42_linear_0_1790)"/>
<path opacity="0.0444444" d="M7.43093 89.6874L28.6837 74.806L28.7859 74.952C85.213 155.538 127.744 223.01 123.839 225.745L102.586 240.626L102.484 240.48C46.0569 159.894 3.52563 92.4219 7.43093 89.6874Z" fill="url(#paint43_linear_0_1790)"/>
<path opacity="0.0454545" d="M7.16044 91.9608L28.1502 76.7108L28.2532 76.8525C85.0777 155.065 127.97 220.669 124.113 223.471L103.123 238.721L103.02 238.579C46.1957 160.367 3.30345 94.763 7.16044 91.9608Z" fill="url(#paint44_linear_0_1790)"/>
<path opacity="0.0464646" d="M6.94911 94.2224L27.6696 78.6084L27.7731 78.7458C84.9297 154.595 128.131 218.34 124.323 221.209L103.603 236.823L103.499 236.686C46.3428 160.836 3.14162 97.0915 6.94911 94.2224Z" fill="url(#paint45_linear_0_1790)"/>
<path opacity="0.0474747" d="M6.79906 96.4709L27.2439 80.4977L27.3479 80.6308C84.7717 154.13 128.23 216.025 124.473 218.96L104.029 234.933L103.925 234.8C46.5008 161.301 3.04223 99.4061 6.79906 96.4709Z" fill="url(#paint46_linear_0_1790)"/>
<path opacity="0.0484848" d="M6.70927 98.7033L26.8722 82.3757L26.9766 82.5046C84.6032 153.668 128.268 213.724 124.563 216.724L104.4 233.052L104.296 232.923C46.669 161.76 3.00423 101.704 6.70927 98.7033Z" fill="url(#paint47_linear_0_1790)"/>
<path opacity="0.0494949" d="M6.67925 100.924L26.5541 84.2471L26.6588 84.3718C84.4246 153.214 128.245 211.444 124.593 214.508L104.718 231.185L104.613 231.06C46.8475 162.218 3.02714 103.989 6.67925 100.924Z" fill="url(#paint48_linear_0_1790)"/>
<path opacity="0.050505" d="M6.70886 103.122L26.2897 86.1008L26.3945 86.2213C84.2363 152.761 128.162 209.176 124.564 212.304L104.983 229.325L104.878 229.205C47.0365 162.665 3.11079 106.25 6.70886 103.122Z" fill="url(#paint49_linear_0_1790)"/>
<path opacity="0.0515152" d="M6.79627 105.307L26.077 87.9469L26.1818 88.0633C84.0373 152.318 128.019 206.934 124.476 210.124L105.195 227.485L105.09 227.368C47.2347 163.113 3.25334 108.498 6.79627 105.307Z" fill="url(#paint50_linear_0_1790)"/>
<path opacity="0.0525253" d="M6.94214 107.469L25.917 89.7743L26.0217 89.8866C83.829 151.877 127.817 204.709 124.33 207.961L105.355 225.655L105.251 225.543C47.4433 163.552 3.45542 110.72 6.94214 107.469Z" fill="url(#paint51_linear_0_1790)"/>
<path opacity="0.0535354" d="M7.14435 109.611L25.8075 91.5883L25.912 91.6966C83.6101 151.445 127.556 202.509 124.126 205.821L105.463 223.844L105.359 223.736C47.6607 163.988 3.7149 112.923 7.14435 109.611Z" fill="url(#paint52_linear_0_1790)"/>
<path opacity="0.0545455" d="M7.40486 111.727L25.7506 93.3816L25.8548 93.4858C83.3834 151.014 127.239 200.33 123.868 203.701L105.522 222.047L105.418 221.942C47.8895 164.414 4.03374 115.098 7.40486 111.727Z" fill="url(#paint53_linear_0_1790)"/>
<path opacity="0.0555556" d="M7.72021 113.821L25.743 95.1583L25.8468 95.2586C83.1463 150.592 126.865 198.177 123.553 201.607L105.53 220.27L105.426 220.17C48.1267 164.836 4.40843 117.251 7.72021 113.821Z" fill="url(#paint54_linear_0_1790)"/>
<path opacity="0.0565657" d="M8.08979 115.893L25.7841 96.9179L25.8874 97.0142C82.8991 150.178 126.433 196.053 123.182 199.54L105.487 218.515L105.384 218.419C48.3725 165.254 4.83837 119.379 8.08979 115.893Z" fill="url(#paint55_linear_0_1790)"/>
<path opacity="0.0575758" d="M8.51401 117.933L25.8745 98.6527L25.9771 98.7451C82.6431 149.767 125.947 193.953 122.757 197.496L105.396 216.777L105.294 216.685C48.6278 165.662 5.32393 121.476 8.51401 117.933Z" fill="url(#paint56_linear_0_1790)"/>
<path opacity="0.0585859" d="M8.99257 119.947L26.0139 100.366L26.1158 100.455C82.3791 149.364 125.407 191.883 122.28 195.481L105.258 215.062L105.156 214.974C48.8931 166.065 5.86481 123.545 8.99257 119.947Z" fill="url(#paint57_linear_0_1790)"/>
<path opacity="0.059596" d="M9.52376 121.935L26.2008 102.06L26.3019 102.145C82.1064 148.97 124.814 189.846 121.75 193.498L105.073 213.373L104.972 213.288C49.1672 166.463 6.45928 125.587 9.52376 121.935Z" fill="url(#paint58_linear_0_1790)"/>
<path opacity="0.0606061" d="M10.1058 123.891L26.4334 103.728L26.5336 103.809C81.8241 148.582 124.168 187.839 121.168 191.544L104.84 211.707L104.74 211.626C49.4493 166.853 7.10553 127.596 10.1058 123.891Z" fill="url(#paint59_linear_0_1790)"/>
<path opacity="0.0616162" d="M10.7388 125.811L26.7121 105.367L26.8112 105.444C81.5335 148.198 123.47 185.861 120.535 189.618L104.561 210.063L104.462 209.985C49.74 167.232 7.80368 129.568 10.7388 125.811Z" fill="url(#paint60_linear_0_1790)"/>
<path opacity="0.0626263" d="M11.4207 127.703L27.0347 106.983L27.1327 107.057C81.2335 147.824 122.72 183.921 119.851 187.728L104.237 208.449L104.139 208.375C50.0381 167.607 8.55154 131.511 11.4207 127.703Z" fill="url(#paint61_linear_0_1790)"/>
<path opacity="0.0636364" d="M12.1519 129.559L27.4018 108.569L27.4986 108.64C80.9258 147.457 121.921 182.014 119.119 185.871L103.869 206.86L103.772 206.79C50.3448 167.973 9.3496 133.416 12.1519 129.559Z" fill="url(#paint62_linear_0_1790)"/>
<path opacity="0.0646465" d="M12.9331 131.381L27.8144 110.128L27.9099 110.195C80.6122 147.097 121.075 180.143 118.341 184.048L103.459 205.301L103.364 205.234C50.6616 168.331 10.1985 135.286 12.9331 131.381Z" fill="url(#paint63_linear_0_1790)"/>
<path opacity="0.0656566" d="M13.7581 133.169L28.2663 111.66L28.3603 111.723C80.2876 146.749 120.179 178.312 117.513 182.265L103.004 203.774L102.91 203.71C50.9831 168.685 11.0922 137.121 13.7581 133.169Z" fill="url(#paint64_linear_0_1790)"/>
<path opacity="0.0666667" d="M14.6312 134.918L28.7618 113.159L28.8544 113.219C79.9576 146.406 119.237 176.518 116.641 180.516L102.51 202.275L102.418 202.215C51.3145 169.028 12.0347 138.916 14.6312 134.918Z" fill="url(#paint65_linear_0_1790)"/>
<path opacity="0.0676768" d="M15.5489 136.626L29.2975 114.623L29.3885 114.68C79.6198 146.068 118.25 174.759 115.724 178.802L101.975 200.805L101.884 200.748C51.653 169.36 13.0225 140.669 15.5489 136.626Z" fill="url(#paint66_linear_0_1790)"/>
<path opacity="0.0686869" d="M16.5095 138.298L29.8721 116.059L29.9614 116.113C79.2739 145.743 117.218 173.046 114.762 177.132L101.4 199.371L101.311 199.318C51.9981 169.688 14.0541 142.385 16.5095 138.298Z" fill="url(#paint67_linear_0_1790)"/>
<path opacity="0.069697" d="M17.5132 139.929L30.4856 117.461L30.5732 117.511C78.9213 145.425 116.142 171.372 113.759 175.501L100.786 197.97L100.699 197.919C52.3506 170.006 15.1295 144.058 17.5132 139.929Z" fill="url(#paint68_linear_0_1790)"/>
<path opacity="0.0707071" d="M18.5591 141.52L31.1374 118.828L31.2231 118.875C78.5624 145.116 115.025 169.742 112.714 173.911L100.136 196.603L100.05 196.556C52.7106 170.315 16.2477 145.689 18.5591 141.52Z" fill="url(#paint69_linear_0_1790)"/>
<path opacity="0.0717172" d="M19.6453 143.067L31.8257 120.159L31.9095 120.204C78.1968 144.815 113.867 168.154 111.629 172.363L99.4484 195.271L99.3646 195.227C53.0773 170.615 17.4071 147.277 19.6453 143.067Z" fill="url(#paint70_linear_0_1790)"/>
<path opacity="0.0727273" d="M20.7701 144.573L32.5488 121.456L32.6307 121.498C77.8239 144.525 112.668 166.612 110.504 170.86L98.7249 193.977L98.643 193.935C53.4497 170.908 18.6057 148.821 20.7701 144.573Z" fill="url(#paint71_linear_0_1790)"/>
<path opacity="0.0737374" d="M21.9322 146.034L33.3057 122.715L33.3855 122.754C77.444 144.243 111.429 165.114 109.34 169.399L97.966 192.718L97.8862 192.679C53.8277 171.19 19.8423 150.319 21.9322 146.034Z" fill="url(#paint72_linear_0_1790)"/>
<path opacity="0.0747475" d="M23.1332 147.45L34.098 123.936L34.1756 123.972C77.0599 143.969 110.155 163.662 108.14 167.982L97.1757 191.496L97.098 191.46C54.2137 171.463 21.1184 151.77 23.1332 147.45Z" fill="url(#paint73_linear_0_1790)"/>
<path opacity="0.0757576" d="M24.3686 148.818L34.9213 125.117L34.9968 125.15C76.6686 143.704 108.844 162.255 106.904 166.61L96.3517 190.312L96.2762 190.278C54.6043 171.725 22.4294 153.174 24.3686 148.818Z" fill="url(#paint74_linear_0_1790)"/>
<path opacity="0.0767677" d="M25.6375 150.142L35.775 126.26L35.8482 126.291C76.2708 143.449 107.496 160.898 105.633 165.286L95.4957 189.169L95.4224 189.137C54.9998 171.979 23.7747 154.531 25.6375 150.142Z" fill="url(#paint75_linear_0_1790)"/>
<path opacity="0.0777778" d="M26.9422 151.422L36.6613 127.366L36.7322 127.395C75.8701 143.207 106.117 159.592 104.331 164.012L94.612 188.068L94.5411 188.039C55.4032 172.226 25.1562 155.842 26.9422 151.422Z" fill="url(#paint76_linear_0_1790)"/>
<path opacity="0.0787879" d="M28.278 152.649L37.5758 128.428L37.6443 128.454C75.4633 142.971 104.705 158.332 102.996 162.782L93.6985 187.004L93.63 186.978C55.8111 172.46 26.5695 157.1 28.278 152.649Z" fill="url(#paint77_linear_0_1790)"/>
<path opacity="0.079798" d="M29.6434 153.83L38.5171 129.45L38.5832 129.474C75.0503 142.747 103.26 157.123 101.63 161.603L92.7562 185.983L92.6901 185.959C56.2229 172.686 28.0129 158.31 29.6434 153.83Z" fill="url(#paint78_linear_0_1790)"/>
<path opacity="0.0808081" d="M31.038 154.96L39.4848 130.429L39.5483 130.451C74.6323 142.531 101.786 155.964 100.234 160.472L91.7869 185.003L91.7233 184.981C56.6393 172.901 29.4858 159.468 31.038 154.96Z" fill="url(#paint79_linear_0_1790)"/>
<path opacity="0.0818182" d="M32.4621 156.04L40.4795 131.365L40.5405 131.385C74.2113 142.325 100.284 154.856 98.8111 159.39L90.7937 184.065L90.7327 184.046C57.0619 173.105 30.9889 160.574 32.4621 156.04Z" fill="url(#paint80_linear_0_1790)"/>
<path opacity="0.0828283" d="M33.9115 157.071L41.497 132.26L41.5554 132.278C73.7844 142.132 98.7541 153.803 97.3602 158.362L89.7747 183.173L89.7163 183.155C57.4873 173.302 32.5176 161.631 33.9115 157.071Z" fill="url(#paint81_linear_0_1790)"/>
<path opacity="0.0838384" d="M35.3871 158.049L42.5384 133.109L42.5941 133.125C73.3541 141.945 97.1988 152.799 95.8847 157.381L88.7333 182.321L88.6776 182.305C57.9177 173.485 34.073 162.631 35.3871 158.049Z" fill="url(#paint82_linear_0_1790)"/>
<path opacity="0.0848485" d="M36.8875 158.974L43.6025 133.913L43.6555 133.928C72.9207 141.769 95.6199 151.848 94.386 156.453L87.671 181.514L87.618 181.5C58.3528 173.658 35.6536 163.579 36.8875 158.974Z" fill="url(#paint83_linear_0_1790)"/>
<path opacity="0.0858586" d="M38.4096 159.852L44.6862 134.677L44.7365 134.69C72.4826 141.608 94.017 150.956 92.8636 155.582L86.587 180.756L86.5367 180.743C58.7906 173.825 37.2562 164.478 38.4096 159.852Z" fill="url(#paint84_linear_0_1790)"/>
<path opacity="0.0868687" d="M39.9532 160.672L45.7895 135.392L45.837 135.403C72.0412 141.452 92.3925 150.113 91.3201 154.758L85.4838 180.038L85.4363 180.027C59.232 173.977 38.8807 165.317 39.9532 160.672Z" fill="url(#paint85_linear_0_1790)"/>
<path opacity="0.0878788" d="M41.5165 161.44L46.9107 136.062L46.9554 136.072C71.5964 141.309 90.7476 149.327 89.7564 153.99L84.3622 179.368L84.3175 179.359C59.6765 174.121 40.5253 166.103 41.5165 161.44Z" fill="url(#paint86_linear_0_1790)"/>
<path opacity="0.0888889" d="M43.0981 162.156L48.0486 136.687L48.0904 136.695C71.1484 141.177 89.0837 148.597 88.174 153.277L83.2235 178.745L83.1817 178.737C60.1238 174.255 42.1885 166.835 43.0981 162.156Z" fill="url(#paint87_linear_0_1790)"/>
<path opacity="0.089899" d="M44.6977 162.816L49.203 137.266L49.2418 137.273C70.6984 141.056 87.4031 147.922 86.5752 152.617L82.07 178.167L82.0311 178.16C60.5746 174.377 43.8698 167.511 44.6977 162.816Z" fill="url(#paint88_linear_0_1790)"/>
<path opacity="0.0909091" d="M46.3113 163.419L50.37 137.794L50.4059 137.799C70.2442 140.941 85.7049 147.299 84.9591 152.008L80.9004 177.633L80.8645 177.627C61.0263 174.485 45.5655 168.128 46.3113 163.419Z" fill="url(#paint89_linear_0_1790)"/>
<path opacity="0.0919192" d="M47.9415 163.973L51.5524 138.281L51.5853 138.286C69.79 140.844 83.9944 146.739 83.3309 151.46L79.7201 177.152L79.6871 177.148C61.4825 174.589 47.278 168.694 47.9415 163.973Z" fill="url(#paint90_linear_0_1790)"/>
<path opacity="0.0929293" d="M49.5835 164.466L52.7454 138.714L52.7753 138.718C69.3325 140.751 82.2697 146.229 81.6887 150.961L78.5269 176.712L78.4969 176.709C61.9397 174.676 49.0025 169.198 49.5835 164.466Z" fill="url(#paint91_linear_0_1790)"/>
<path opacity="0.0939394" d="M51.2374 164.907L53.9494 139.104L53.9763 139.107C68.8738 140.673 80.534 145.78 80.0356 150.522L77.3236 176.324L77.2967 176.321C62.3992 174.756 50.739 169.648 51.2374 164.907Z" fill="url(#paint92_linear_0_1790)"/>
<path opacity="0.0949495" d="M52.9009 165.292L55.1621 139.446L55.1861 139.448C68.413 140.605 78.7875 145.388 78.372 150.137L76.1108 175.983L76.0868 175.981C62.8599 174.824 52.4853 170.041 52.9009 165.292Z" fill="url(#paint93_linear_0_1790)"/>
<path opacity="0.0959596" d="M54.5734 165.62L56.3832 139.738L56.4041 139.739C67.9514 140.547 77.0329 145.052 76.7004 149.808L74.8906 175.689L74.8696 175.688C63.3223 174.88 54.2408 170.375 54.5734 165.62Z" fill="url(#paint94_linear_0_1790)"/>
<path opacity="0.0969697" d="M56.2511 165.894L57.6089 139.984L57.6268 139.985C67.4868 140.502 75.2691 144.776 75.0196 149.537L73.6618 175.446L73.6439 175.445C63.784 174.928 56.0016 170.655 56.2511 165.894Z" fill="url(#paint95_linear_0_1790)"/>
<path opacity="0.0979798" d="M57.9368 166.109L58.8423 140.18L58.8571 140.181C67.0236 140.466 73.502 144.555 73.3356 149.32L72.4301 175.249L72.4153 175.248C64.2488 174.963 57.7705 170.874 57.9368 166.109Z" fill="url(#paint96_linear_0_1790)"/>
<path opacity="0.0989899" d="M59.6255 166.27L60.0783 140.329L60.09 140.329C66.5585 140.442 71.7293 144.393 71.646 149.16L71.1933 175.101L71.1815 175.101C64.713 174.988 59.5423 171.036 59.6255 166.27Z" fill="url(#paint97_linear_0_1790)"/>
<path opacity="0.1" d="M61.3178 166.374L61.3178 140.429L61.3265 140.429C66.094 140.429 69.9546 144.289 69.9546 149.057L69.9546 175.002L69.946 175.002C65.1785 175.002 61.3178 171.141 61.3178 166.374Z" fill="url(#paint98_linear_0_1790)"/>
<defs>
<linearGradient id="paint0_linear_0_1790" x1="104.381" y1="6.23187" x2="66.8338" y2="1.27495" gradientUnits="userSpaceOnUse">
<stop stop-color="#AA448F"/>
<stop offset="0.53125" stop-color="#FF1665"/>
<stop offset="1" stop-color="#FA6C81"/>
</linearGradient>
<linearGradient id="paint1_linear_0_1790" x1="101.545" y1="7.10856" x2="63.9164" y2="2.81084" gradientUnits="userSpaceOnUse">
<stop stop-color="#AA448F"/>
<stop offset="0.53125" stop-color="#FF1665"/>
<stop offset="1" stop-color="#FA6C81"/>
</linearGradient>
<linearGradient id="paint2_linear_0_1790" x1="98.749" y1="8.03944" x2="61.0511" y2="4.40231" gradientUnits="userSpaceOnUse">
<stop stop-color="#AA448F"/>
<stop offset="0.53125" stop-color="#FF1665"/>
<stop offset="1" stop-color="#FA6C81"/>
</linearGradient>
<linearGradient id="paint3_linear_0_1790" x1="95.9987" y1="9.01957" x2="58.2428" y2="6.04421" gradientUnits="userSpaceOnUse">
<stop stop-color="#AA448F"/>
<stop offset="0.53125" stop-color="#FF1665"/>
<stop offset="1" stop-color="#FA6C81"/>
</linearGradient>
<linearGradient id="paint4_linear_0_1790" x1="93.2917" y1="10.0478" x2="55.4895" y2="7.73521" gradientUnits="userSpaceOnUse">
<stop stop-color="#AA448F"/>
<stop offset="0.53125" stop-color="#FF1665"/>
<stop offset="1" stop-color="#FA6C81"/>
</linearGradient>
<linearGradient id="paint5_linear_0_1790" x1="90.6298" y1="11.1297" x2="52.7928" y2="9.48067" gradientUnits="userSpaceOnUse">
<stop stop-color="#AA448F"/>
<stop offset="0.53125" stop-color="#FF1665"/>
<stop offset="1" stop-color="#FA6C81"/>
</linearGradient>
<linearGradient id="paint6_linear_0_1790" x1="88.0128" y1="12.2556" x2="50.1528" y2="11.2706" gradientUnits="userSpaceOnUse">
<stop stop-color="#AA448F"/>
<stop offset="0.53125" stop-color="#FF1665"/>
<stop offset="1" stop-color="#FA6C81"/>
</linearGradient>
<linearGradient id="paint7_linear_0_1790" x1="85.4438" y1="13.4285" x2="47.5724" y2="13.108" gradientUnits="userSpaceOnUse">
<stop stop-color="#AA448F"/>
<stop offset="0.53125" stop-color="#FF1665"/>
<stop offset="1" stop-color="#FA6C81"/>
</linearGradient>
<linearGradient id="paint8_linear_0_1790" x1="82.9231" y1="14.6482" x2="45.0519" y2="14.9924" gradientUnits="userSpaceOnUse">
<stop stop-color="#AA448F"/>
<stop offset="0.53125" stop-color="#FF1665"/>
<stop offset="1" stop-color="#FA6C81"/>
</linearGradient>
<linearGradient id="paint9_linear_0_1790" x1="80.4499" y1="15.9077" x2="42.5906" y2="16.9166" gradientUnits="userSpaceOnUse">
<stop stop-color="#AA448F"/>
<stop offset="0.53125" stop-color="#FF1665"/>
<stop offset="1" stop-color="#FA6C81"/>
</linearGradient>
<linearGradient id="paint10_linear_0_1790" x1="78.0268" y1="17.2113" x2="40.1911" y2="18.8846" gradientUnits="userSpaceOnUse">
<stop stop-color="#AA448F"/>
<stop offset="0.53125" stop-color="#FF1665"/>
<stop offset="1" stop-color="#FA6C81"/>
</linearGradient>
<linearGradient id="paint11_linear_0_1790" x1="75.6529" y1="18.559" x2="37.8524" y2="20.8962" gradientUnits="userSpaceOnUse">
<stop stop-color="#AA448F"/>
<stop offset="0.53125" stop-color="#FF1665"/>
<stop offset="1" stop-color="#FA6C81"/>
</linearGradient>
<linearGradient id="paint12_linear_0_1790" x1="73.3298" y1="19.9433" x2="35.5763" y2="22.9439" gradientUnits="userSpaceOnUse">
<stop stop-color="#AA448F"/>
<stop offset="0.53125" stop-color="#FF1665"/>
<stop offset="1" stop-color="#FA6C81"/>
</linearGradient>
<linearGradient id="paint13_linear_0_1790" x1="71.0594" y1="21.3642" x2="33.3644" y2="25.0272" gradientUnits="userSpaceOnUse">
<stop stop-color="#AA448F"/>
<stop offset="0.53125" stop-color="#FF1665"/>
<stop offset="1" stop-color="#FA6C81"/>
</linearGradient>
<linearGradient id="paint14_linear_0_1790" x1="68.8402" y1="22.822" x2="31.2154" y2="27.1466" gradientUnits="userSpaceOnUse">
<stop stop-color="#AA448F"/>
<stop offset="0.53125" stop-color="#FF1665"/>
<stop offset="1" stop-color="#FA6C81"/>
</linearGradient>
<linearGradient id="paint15_linear_0_1790" x1="66.6721" y1="24.3186" x2="29.1291" y2="29.3033" gradientUnits="userSpaceOnUse">
<stop stop-color="#AA448F"/>
<stop offset="0.53125" stop-color="#FF1665"/>
<stop offset="1" stop-color="#FA6C81"/>
</linearGradient>
<linearGradient id="paint16_linear_0_1790" x1="64.559" y1="25.8475" x2="27.1095" y2="31.491" gradientUnits="userSpaceOnUse">
<stop stop-color="#AA448F"/>
<stop offset="0.53125" stop-color="#FF1665"/>
<stop offset="1" stop-color="#FA6C81"/>
</linearGradient>
<linearGradient id="paint17_linear_0_1790" x1="62.5" y1="27.4096" x2="25.1554" y2="33.7103" gradientUnits="userSpaceOnUse">
<stop stop-color="#AA448F"/>
<stop offset="0.53125" stop-color="#FF1665"/>
<stop offset="1" stop-color="#FA6C81"/>
</linearGradient>
<linearGradient id="paint18_linear_0_1790" x1="60.4943" y1="29.0014" x2="23.2663" y2="35.9574" gradientUnits="userSpaceOnUse">
<stop stop-color="#AA448F"/>
<stop offset="0.53125" stop-color="#FF1665"/>
<stop offset="1" stop-color="#FA6C81"/>
</linearGradient>
<linearGradient id="paint19_linear_0_1790" x1="58.542" y1="30.6248" x2="21.442" y2="38.2341" gradientUnits="userSpaceOnUse">
<stop stop-color="#AA448F"/>
<stop offset="0.53125" stop-color="#FF1665"/>
<stop offset="1" stop-color="#FA6C81"/>
</linearGradient>
<linearGradient id="paint20_linear_0_1790" x1="56.646" y1="32.2762" x2="19.6856" y2="40.5366" gradientUnits="userSpaceOnUse">
<stop stop-color="#AA448F"/>
<stop offset="0.53125" stop-color="#FF1665"/>
<stop offset="1" stop-color="#FA6C81"/>
</linearGradient>
<linearGradient id="paint21_linear_0_1790" x1="54.8047" y1="33.9535" x2="17.9953" y2="42.8624" gradientUnits="userSpaceOnUse">
<stop stop-color="#AA448F"/>
<stop offset="0.53125" stop-color="#FF1665"/>
<stop offset="1" stop-color="#FA6C81"/>
</linearGradient>
<linearGradient id="paint22_linear_0_1790" x1="53.0192" y1="35.6583" x2="16.3721" y2="45.2132" gradientUnits="userSpaceOnUse">
<stop stop-color="#AA448F"/>
<stop offset="0.53125" stop-color="#FF1665"/>
<stop offset="1" stop-color="#FA6C81"/>
</linearGradient>
<linearGradient id="paint23_linear_0_1790" x1="51.2896" y1="37.3848" x2="14.8164" y2="47.5828" gradientUnits="userSpaceOnUse">
<stop stop-color="#AA448F"/>
<stop offset="0.53125" stop-color="#FF1665"/>
<stop offset="1" stop-color="#FA6C81"/>
</linearGradient>
<linearGradient id="paint24_linear_0_1790" x1="49.6164" y1="39.1356" x2="13.3283" y2="49.9737" gradientUnits="userSpaceOnUse">
<stop stop-color="#AA448F"/>
<stop offset="0.53125" stop-color="#FF1665"/>
<stop offset="1" stop-color="#FA6C81"/>
</linearGradient>
<linearGradient id="paint25_linear_0_1790" x1="48.0007" y1="40.9066" x2="11.909" y2="52.3816" gradientUnits="userSpaceOnUse">
<stop stop-color="#AA448F"/>
<stop offset="0.53125" stop-color="#FF1665"/>
<stop offset="1" stop-color="#FA6C81"/>
</linearGradient>
<linearGradient id="paint26_linear_0_1790" x1="46.4421" y1="42.6999" x2="10.558" y2="54.8084" gradientUnits="userSpaceOnUse">
<stop stop-color="#AA448F"/>
<stop offset="0.53125" stop-color="#FF1665"/>
<stop offset="1" stop-color="#FA6C81"/>
</linearGradient>
<linearGradient id="paint27_linear_0_1790" x1="44.9391" y1="44.5069" x2="9.27386" y2="57.2452" gradientUnits="userSpaceOnUse">
<stop stop-color="#AA448F"/>
<stop offset="0.53125" stop-color="#FF1665"/>
<stop offset="1" stop-color="#FA6C81"/>
</linearGradient>
<linearGradient id="paint28_linear_0_1790" x1="43.4934" y1="46.3361" x2="8.05802" y2="59.7004" gradientUnits="userSpaceOnUse">
<stop stop-color="#AA448F"/>
<stop offset="0.53125" stop-color="#FF1665"/>
<stop offset="1" stop-color="#FA6C81"/>
</linearGradient>
<linearGradient id="paint29_linear_0_1790" x1="42.1053" y1="48.179" x2="6.91086" y2="62.1653" gradientUnits="userSpaceOnUse">
<stop stop-color="#AA448F"/>
<stop offset="0.53125" stop-color="#FF1665"/>
<stop offset="1" stop-color="#FA6C81"/>
</linearGradient>
<linearGradient id="paint30_linear_0_1790" x1="40.7742" y1="50.0348" x2="5.83173" y2="64.6391" gradientUnits="userSpaceOnUse">
<stop stop-color="#AA448F"/>
<stop offset="0.53125" stop-color="#FF1665"/>
<stop offset="1" stop-color="#FA6C81"/>
</linearGradient>
<linearGradient id="paint31_linear_0_1790" x1="39.5019" y1="51.9074" x2="4.82227" y2="67.1251" gradientUnits="userSpaceOnUse">
<stop stop-color="#AA448F"/>
<stop offset="0.53125" stop-color="#FF1665"/>
<stop offset="1" stop-color="#FA6C81"/>
</linearGradient>
<linearGradient id="paint32_linear_0_1790" x1="38.2859" y1="53.7847" x2="3.88" y2="69.6114" gradientUnits="userSpaceOnUse">
<stop stop-color="#AA448F"/>
<stop offset="0.53125" stop-color="#FF1665"/>
<stop offset="1" stop-color="#FA6C81"/>
</linearGradient>
<linearGradient id="paint33_linear_0_1790" x1="37.1283" y1="55.6757" x2="3.00693" y2="72.1066" gradientUnits="userSpaceOnUse">
<stop stop-color="#AA448F"/>
<stop offset="0.53125" stop-color="#FF1665"/>
<stop offset="1" stop-color="#FA6C81"/>
</linearGradient>
<linearGradient id="paint34_linear_0_1790" x1="36.0273" y1="57.5748" x2="2.20116" y2="74.6049" gradientUnits="userSpaceOnUse">
<stop stop-color="#AA448F"/>
<stop offset="0.53125" stop-color="#FF1665"/>
<stop offset="1" stop-color="#FA6C81"/>
</linearGradient>
<linearGradient id="paint35_linear_0_1790" x1="34.9839" y1="59.4811" x2="1.46359" y2="77.1053" gradientUnits="userSpaceOnUse">
<stop stop-color="#AA448F"/>
<stop offset="0.53125" stop-color="#FF1665"/>
<stop offset="1" stop-color="#FA6C81"/>
</linearGradient>
<linearGradient id="paint36_linear_0_1790" x1="33.9976" y1="61.3918" x2="0.793623" y2="79.6049" gradientUnits="userSpaceOnUse">
<stop stop-color="#AA448F"/>
<stop offset="0.53125" stop-color="#FF1665"/>
<stop offset="1" stop-color="#FA6C81"/>
</linearGradient>
<linearGradient id="paint37_linear_0_1790" x1="33.0692" y1="63.3092" x2="0.192064" y2="82.1056" gradientUnits="userSpaceOnUse">
<stop stop-color="#AA448F"/>
<stop offset="0.53125" stop-color="#FF1665"/>
<stop offset="1" stop-color="#FA6C81"/>
</linearGradient>
<linearGradient id="paint38_linear_0_1790" x1="32.1978" y1="65.2254" x2="-0.342119" y2="84.5996" gradientUnits="userSpaceOnUse">
<stop stop-color="#AA448F"/>
<stop offset="0.53125" stop-color="#FF1665"/>
<stop offset="1" stop-color="#FA6C81"/>
</linearGradient>
<linearGradient id="paint39_linear_0_1790" x1="31.3815" y1="67.1424" x2="-0.810947" y2="87.0885" gradientUnits="userSpaceOnUse">
<stop stop-color="#AA448F"/>
<stop offset="0.53125" stop-color="#FF1665"/>
<stop offset="1" stop-color="#FA6C81"/>
</linearGradient>
<linearGradient id="paint40_linear_0_1790" x1="30.6231" y1="69.0615" x2="-1.21161" y2="89.5734" gradientUnits="userSpaceOnUse">
<stop stop-color="#AA448F"/>
<stop offset="0.53125" stop-color="#FF1665"/>
<stop offset="1" stop-color="#FA6C81"/>
</linearGradient>
<linearGradient id="paint41_linear_0_1790" x1="29.922" y1="70.9809" x2="-1.54487" y2="92.0526" gradientUnits="userSpaceOnUse">
<stop stop-color="#AA448F"/>
<stop offset="0.53125" stop-color="#FF1665"/>
<stop offset="1" stop-color="#FA6C81"/>
</linearGradient>
<linearGradient id="paint42_linear_0_1790" x1="29.2751" y1="72.8973" x2="-1.81391" y2="94.5223" gradientUnits="userSpaceOnUse">
<stop stop-color="#AA448F"/>
<stop offset="0.53125" stop-color="#FF1665"/>
<stop offset="1" stop-color="#FA6C81"/>
</linearGradient>
<linearGradient id="paint43_linear_0_1790" x1="28.6837" y1="74.806" x2="-2.0176" y2="96.9778" gradientUnits="userSpaceOnUse">
<stop stop-color="#AA448F"/>
<stop offset="0.53125" stop-color="#FF1665"/>
<stop offset="1" stop-color="#FA6C81"/>
</linearGradient>
<linearGradient id="paint44_linear_0_1790" x1="28.1502" y1="76.7108" x2="-2.15347" y2="99.4227" gradientUnits="userSpaceOnUse">
<stop stop-color="#AA448F"/>
<stop offset="0.53125" stop-color="#FF1665"/>
<stop offset="1" stop-color="#FA6C81"/>
</linearGradient>
<linearGradient id="paint45_linear_0_1790" x1="27.6696" y1="78.6084" x2="-2.22685" y2="101.854" gradientUnits="userSpaceOnUse">
<stop stop-color="#AA448F"/>
<stop offset="0.53125" stop-color="#FF1665"/>
<stop offset="1" stop-color="#FA6C81"/>
</linearGradient>
<linearGradient id="paint46_linear_0_1790" x1="27.2439" y1="80.4977" x2="-2.23564" y2="104.269" gradientUnits="userSpaceOnUse">
<stop stop-color="#AA448F"/>
<stop offset="0.53125" stop-color="#FF1665"/>
<stop offset="1" stop-color="#FA6C81"/>
</linearGradient>
<linearGradient id="paint47_linear_0_1790" x1="26.8722" y1="82.3757" x2="-2.18089" y2="106.666" gradientUnits="userSpaceOnUse">
<stop stop-color="#AA448F"/>
<stop offset="0.53125" stop-color="#FF1665"/>
<stop offset="1" stop-color="#FA6C81"/>
</linearGradient>
<linearGradient id="paint48_linear_0_1790" x1="26.5541" y1="84.2471" x2="-2.06308" y2="109.049" gradientUnits="userSpaceOnUse">
<stop stop-color="#AA448F"/>
<stop offset="0.53125" stop-color="#FF1665"/>
<stop offset="1" stop-color="#FA6C81"/>
</linearGradient>
<linearGradient id="paint49_linear_0_1790" x1="26.2897" y1="86.1008" x2="-1.88239" y2="111.407" gradientUnits="userSpaceOnUse">
<stop stop-color="#AA448F"/>
<stop offset="0.53125" stop-color="#FF1665"/>
<stop offset="1" stop-color="#FA6C81"/>
</linearGradient>
<linearGradient id="paint50_linear_0_1790" x1="26.077" y1="87.9469" x2="-1.64067" y2="113.75" gradientUnits="userSpaceOnUse">
<stop stop-color="#AA448F"/>
<stop offset="0.53125" stop-color="#FF1665"/>
<stop offset="1" stop-color="#FA6C81"/>
</linearGradient>
<linearGradient id="paint51_linear_0_1790" x1="25.917" y1="89.7744" x2="-1.33725" y2="116.066" gradientUnits="userSpaceOnUse">
<stop stop-color="#AA448F"/>
<stop offset="0.53125" stop-color="#FF1665"/>
<stop offset="1" stop-color="#FA6C81"/>
</linearGradient>
<linearGradient id="paint52_linear_0_1790" x1="25.8075" y1="91.5883" x2="-0.974293" y2="118.361" gradientUnits="userSpaceOnUse">
<stop stop-color="#AA448F"/>
<stop offset="0.53125" stop-color="#FF1665"/>
<stop offset="1" stop-color="#FA6C81"/>
</linearGradient>
<linearGradient id="paint53_linear_0_1790" x1="25.7506" y1="93.3816" x2="-0.549828" y2="120.627" gradientUnits="userSpaceOnUse">
<stop stop-color="#AA448F"/>
<stop offset="0.53125" stop-color="#FF1665"/>
<stop offset="1" stop-color="#FA6C81"/>
</linearGradient>
<linearGradient id="paint54_linear_0_1790" x1="25.743" y1="95.1583" x2="-0.0673373" y2="122.868" gradientUnits="userSpaceOnUse">
<stop stop-color="#AA448F"/>
<stop offset="0.53125" stop-color="#FF1665"/>
<stop offset="1" stop-color="#FA6C81"/>
</linearGradient>
<linearGradient id="paint55_linear_0_1790" x1="25.7841" y1="96.9179" x2="0.472571" y2="125.084" gradientUnits="userSpaceOnUse">
<stop stop-color="#AA448F"/>
<stop offset="0.53125" stop-color="#FF1665"/>
<stop offset="1" stop-color="#FA6C81"/>
</linearGradient>
<linearGradient id="paint56_linear_0_1790" x1="25.8745" y1="98.6527" x2="1.0703" y2="127.266" gradientUnits="userSpaceOnUse">
<stop stop-color="#AA448F"/>
<stop offset="0.53125" stop-color="#FF1665"/>
<stop offset="1" stop-color="#FA6C81"/>
</linearGradient>
<linearGradient id="paint57_linear_0_1790" x1="26.0139" y1="100.366" x2="1.72554" y2="129.418" gradientUnits="userSpaceOnUse">
<stop stop-color="#AA448F"/>
<stop offset="0.53125" stop-color="#FF1665"/>
<stop offset="1" stop-color="#FA6C81"/>
</linearGradient>
<linearGradient id="paint58_linear_0_1790" x1="26.2008" y1="102.06" x2="2.4366" y2="131.542" gradientUnits="userSpaceOnUse">
<stop stop-color="#AA448F"/>
<stop offset="0.53125" stop-color="#FF1665"/>
<stop offset="1" stop-color="#FA6C81"/>
</linearGradient>
<linearGradient id="paint59_linear_0_1790" x1="26.4334" y1="103.728" x2="3.20169" y2="133.631" gradientUnits="userSpaceOnUse">
<stop stop-color="#AA448F"/>
<stop offset="0.53125" stop-color="#FF1665"/>
<stop offset="1" stop-color="#FA6C81"/>
</linearGradient>
<linearGradient id="paint60_linear_0_1790" x1="26.7121" y1="105.367" x2="4.02096" y2="135.681" gradientUnits="userSpaceOnUse">
<stop stop-color="#AA448F"/>
<stop offset="0.53125" stop-color="#FF1665"/>
<stop offset="1" stop-color="#FA6C81"/>
</linearGradient>
<linearGradient id="paint61_linear_0_1790" x1="27.0347" y1="106.983" x2="4.89226" y2="137.7" gradientUnits="userSpaceOnUse">
<stop stop-color="#AA448F"/>
<stop offset="0.53125" stop-color="#FF1665"/>
<stop offset="1" stop-color="#FA6C81"/>
</linearGradient>
<linearGradient id="paint62_linear_0_1790" x1="27.4018" y1="108.569" x2="5.81613" y2="139.68" gradientUnits="userSpaceOnUse">
<stop stop-color="#AA448F"/>
<stop offset="0.53125" stop-color="#FF1665"/>
<stop offset="1" stop-color="#FA6C81"/>
</linearGradient>
<linearGradient id="paint63_linear_0_1790" x1="27.8144" y1="110.128" x2="6.79328" y2="141.622" gradientUnits="userSpaceOnUse">
<stop stop-color="#AA448F"/>
<stop offset="0.53125" stop-color="#FF1665"/>
<stop offset="1" stop-color="#FA6C81"/>
</linearGradient>
<linearGradient id="paint64_linear_0_1790" x1="28.2663" y1="111.66" x2="7.81759" y2="143.528" gradientUnits="userSpaceOnUse">
<stop stop-color="#AA448F"/>
<stop offset="0.53125" stop-color="#FF1665"/>
<stop offset="1" stop-color="#FA6C81"/>
</linearGradient>
<linearGradient id="paint65_linear_0_1790" x1="28.7618" y1="113.159" x2="8.89332" y2="145.391" gradientUnits="userSpaceOnUse">
<stop stop-color="#AA448F"/>
<stop offset="0.53125" stop-color="#FF1665"/>
<stop offset="1" stop-color="#FA6C81"/>
</linearGradient>
<linearGradient id="paint66_linear_0_1790" x1="29.2975" y1="114.623" x2="10.0169" y2="147.21" gradientUnits="userSpaceOnUse">
<stop stop-color="#AA448F"/>
<stop offset="0.53125" stop-color="#FF1665"/>
<stop offset="1" stop-color="#FA6C81"/>
</linearGradient>
<linearGradient id="paint67_linear_0_1790" x1="29.8721" y1="116.059" x2="11.1871" y2="148.99" gradientUnits="userSpaceOnUse">
<stop stop-color="#AA448F"/>
<stop offset="0.53125" stop-color="#FF1665"/>
<stop offset="1" stop-color="#FA6C81"/>
</linearGradient>
<linearGradient id="paint68_linear_0_1790" x1="30.4856" y1="117.461" x2="12.4038" y2="150.726" gradientUnits="userSpaceOnUse">
<stop stop-color="#AA448F"/>
<stop offset="0.53125" stop-color="#FF1665"/>
<stop offset="1" stop-color="#FA6C81"/>
</linearGradient>
<linearGradient id="paint69_linear_0_1790" x1="31.1374" y1="118.828" x2="13.6664" y2="152.417" gradientUnits="userSpaceOnUse">
<stop stop-color="#AA448F"/>
<stop offset="0.53125" stop-color="#FF1665"/>
<stop offset="1" stop-color="#FA6C81"/>
</linearGradient>
<linearGradient id="paint70_linear_0_1790" x1="31.8257" y1="120.159" x2="14.9731" y2="154.062" gradientUnits="userSpaceOnUse">
<stop stop-color="#AA448F"/>
<stop offset="0.53125" stop-color="#FF1665"/>
<stop offset="1" stop-color="#FA6C81"/>
</linearGradient>
<linearGradient id="paint71_linear_0_1790" x1="32.5488" y1="121.456" x2="16.3223" y2="155.662" gradientUnits="userSpaceOnUse">
<stop stop-color="#AA448F"/>
<stop offset="0.53125" stop-color="#FF1665"/>
<stop offset="1" stop-color="#FA6C81"/>
</linearGradient>
<linearGradient id="paint72_linear_0_1790" x1="33.3057" y1="122.715" x2="17.713" y2="157.213" gradientUnits="userSpaceOnUse">
<stop stop-color="#AA448F"/>
<stop offset="0.53125" stop-color="#FF1665"/>
<stop offset="1" stop-color="#FA6C81"/>
</linearGradient>
<linearGradient id="paint73_linear_0_1790" x1="34.098" y1="123.936" x2="19.1467" y2="158.715" gradientUnits="userSpaceOnUse">
<stop stop-color="#AA448F"/>
<stop offset="0.53125" stop-color="#FF1665"/>
<stop offset="1" stop-color="#FA6C81"/>
</linearGradient>
<linearGradient id="paint74_linear_0_1790" x1="34.9213" y1="125.117" x2="20.6194" y2="160.167" gradientUnits="userSpaceOnUse">
<stop stop-color="#AA448F"/>
<stop offset="0.53125" stop-color="#FF1665"/>
<stop offset="1" stop-color="#FA6C81"/>
</linearGradient>
<linearGradient id="paint75_linear_0_1790" x1="35.775" y1="126.26" x2="22.1305" y2="161.569" gradientUnits="userSpaceOnUse">
<stop stop-color="#AA448F"/>
<stop offset="0.53125" stop-color="#FF1665"/>
<stop offset="1" stop-color="#FA6C81"/>
</linearGradient>
<linearGradient id="paint76_linear_0_1790" x1="36.6613" y1="127.366" x2="23.6825" y2="162.924" gradientUnits="userSpaceOnUse">
<stop stop-color="#AA448F"/>
<stop offset="0.53125" stop-color="#FF1665"/>
<stop offset="1" stop-color="#FA6C81"/>
</linearGradient>
<linearGradient id="paint77_linear_0_1790" x1="37.5758" y1="128.428" x2="25.2713" y2="164.223" gradientUnits="userSpaceOnUse">
<stop stop-color="#AA448F"/>
<stop offset="0.53125" stop-color="#FF1665"/>
<stop offset="1" stop-color="#FA6C81"/>
</linearGradient>
<linearGradient id="paint78_linear_0_1790" x1="38.5171" y1="129.45" x2="26.8957" y2="165.47" gradientUnits="userSpaceOnUse">
<stop stop-color="#AA448F"/>
<stop offset="0.53125" stop-color="#FF1665"/>
<stop offset="1" stop-color="#FA6C81"/>
</linearGradient>
<linearGradient id="paint79_linear_0_1790" x1="39.4848" y1="130.429" x2="28.5559" y2="166.663" gradientUnits="userSpaceOnUse">
<stop stop-color="#AA448F"/>
<stop offset="0.53125" stop-color="#FF1665"/>
<stop offset="1" stop-color="#FA6C81"/>
</linearGradient>
<linearGradient id="paint80_linear_0_1790" x1="40.4795" y1="131.365" x2="30.253" y2="167.8" gradientUnits="userSpaceOnUse">
<stop stop-color="#AA448F"/>
<stop offset="0.53125" stop-color="#FF1665"/>
<stop offset="1" stop-color="#FA6C81"/>
</linearGradient>
<linearGradient id="paint81_linear_0_1790" x1="41.497" y1="132.26" x2="31.9837" y2="168.885" gradientUnits="userSpaceOnUse">
<stop stop-color="#AA448F"/>
<stop offset="0.53125" stop-color="#FF1665"/>
<stop offset="1" stop-color="#FA6C81"/>
</linearGradient>
<linearGradient id="paint82_linear_0_1790" x1="42.5384" y1="133.109" x2="33.7498" y2="169.91" gradientUnits="userSpaceOnUse">
<stop stop-color="#AA448F"/>
<stop offset="0.53125" stop-color="#FF1665"/>
<stop offset="1" stop-color="#FA6C81"/>
</linearGradient>
<linearGradient id="paint83_linear_0_1790" x1="43.6025" y1="133.913" x2="35.5513" y2="170.879" gradientUnits="userSpaceOnUse">
<stop stop-color="#AA448F"/>
<stop offset="0.53125" stop-color="#FF1665"/>
<stop offset="1" stop-color="#FA6C81"/>
</linearGradient>
<linearGradient id="paint84_linear_0_1790" x1="44.6862" y1="134.677" x2="37.3868" y2="171.793" gradientUnits="userSpaceOnUse">
<stop stop-color="#AA448F"/>
<stop offset="0.53125" stop-color="#FF1665"/>
<stop offset="1" stop-color="#FA6C81"/>
</linearGradient>
<linearGradient id="paint85_linear_0_1790" x1="45.7895" y1="135.392" x2="39.2581" y2="172.644" gradientUnits="userSpaceOnUse">
<stop stop-color="#AA448F"/>
<stop offset="0.53125" stop-color="#FF1665"/>
<stop offset="1" stop-color="#FA6C81"/>
</linearGradient>
<linearGradient id="paint86_linear_0_1790" x1="46.9107" y1="136.062" x2="41.1659" y2="173.436" gradientUnits="userSpaceOnUse">
<stop stop-color="#AA448F"/>
<stop offset="0.53125" stop-color="#FF1665"/>
<stop offset="1" stop-color="#FA6C81"/>
</linearGradient>
<linearGradient id="paint87_linear_0_1790" x1="48.0486" y1="136.687" x2="43.1124" y2="174.167" gradientUnits="userSpaceOnUse">
<stop stop-color="#AA448F"/>
<stop offset="0.53125" stop-color="#FF1665"/>
<stop offset="1" stop-color="#FA6C81"/>
</linearGradient>
<linearGradient id="paint88_linear_0_1790" x1="49.203" y1="137.266" x2="45.1015" y2="174.835" gradientUnits="userSpaceOnUse">
<stop stop-color="#AA448F"/>
<stop offset="0.53125" stop-color="#FF1665"/>
<stop offset="1" stop-color="#FA6C81"/>
</linearGradient>
<linearGradient id="paint89_linear_0_1790" x1="50.37" y1="137.794" x2="47.1352" y2="175.433" gradientUnits="userSpaceOnUse">
<stop stop-color="#AA448F"/>
<stop offset="0.53125" stop-color="#FF1665"/>
<stop offset="1" stop-color="#FA6C81"/>
</linearGradient>
<linearGradient id="paint90_linear_0_1790" x1="51.5524" y1="138.281" x2="49.2242" y2="175.969" gradientUnits="userSpaceOnUse">
<stop stop-color="#AA448F"/>
<stop offset="0.53125" stop-color="#FF1665"/>
<stop offset="1" stop-color="#FA6C81"/>
</linearGradient>
<linearGradient id="paint91_linear_0_1790" x1="52.7454" y1="138.714" x2="51.3747" y2="176.424" gradientUnits="userSpaceOnUse">
<stop stop-color="#AA448F"/>
<stop offset="0.53125" stop-color="#FF1665"/>
<stop offset="1" stop-color="#FA6C81"/>
</linearGradient>
<linearGradient id="paint92_linear_0_1790" x1="53.9494" y1="139.104" x2="53.6033" y2="176.804" gradientUnits="userSpaceOnUse">
<stop stop-color="#AA448F"/>
<stop offset="0.53125" stop-color="#FF1665"/>
<stop offset="1" stop-color="#FA6C81"/>
</linearGradient>
<linearGradient id="paint93_linear_0_1790" x1="55.1621" y1="139.446" x2="55.9314" y2="177.093" gradientUnits="userSpaceOnUse">
<stop stop-color="#AA448F"/>
<stop offset="0.53125" stop-color="#FF1665"/>
<stop offset="1" stop-color="#FA6C81"/>
</linearGradient>
<linearGradient id="paint94_linear_0_1790" x1="56.3832" y1="139.738" x2="58.3957" y2="177.27" gradientUnits="userSpaceOnUse">
<stop stop-color="#AA448F"/>
<stop offset="0.53125" stop-color="#FF1665"/>
<stop offset="1" stop-color="#FA6C81"/>
</linearGradient>
<linearGradient id="paint95_linear_0_1790" x1="57.6089" y1="139.984" x2="61.0529" y2="177.306" gradientUnits="userSpaceOnUse">
<stop stop-color="#AA448F"/>
<stop offset="0.53125" stop-color="#FF1665"/>
<stop offset="1" stop-color="#FA6C81"/>
</linearGradient>
<linearGradient id="paint96_linear_0_1790" x1="58.8423" y1="140.18" x2="64.0104" y2="177.123" gradientUnits="userSpaceOnUse">
<stop stop-color="#AA448F"/>
<stop offset="0.53125" stop-color="#FF1665"/>
<stop offset="1" stop-color="#FA6C81"/>
</linearGradient>
<linearGradient id="paint97_linear_0_1790" x1="60.0783" y1="140.329" x2="67.4566" y2="176.56" gradientUnits="userSpaceOnUse">
<stop stop-color="#AA448F"/>
<stop offset="0.53125" stop-color="#FF1665"/>
<stop offset="1" stop-color="#FA6C81"/>
</linearGradient>
<linearGradient id="paint98_linear_0_1790" x1="61.3178" y1="140.429" x2="71.7739" y2="175.155" gradientUnits="userSpaceOnUse">
<stop stop-color="#AA448F"/>
<stop offset="0.53125" stop-color="#FF1665"/>
<stop offset="1" stop-color="#FA6C81"/>
</linearGradient>
</defs>
</svg>
