<svg width="60" height="60" viewBox="0 0 60 60" fill="none" xmlns="http://www.w3.org/2000/svg">
<g clip-path="url(#clip0_0_5758)">
<circle cx="29.9999" cy="30.0001" r="30.0001" fill="#F3BA2F"/>
<path d="M22.2315 26.8084L29.9998 19.0401L37.7719 26.8118L42.2919 22.2918L29.9998 10.0001L17.7118 22.2881L22.2316 26.8081L22.2315 26.8084ZM9.99976 30.0001L14.5199 25.4793L19.0398 29.9992L14.5196 34.5194L9.99976 30.0001ZM22.2315 33.1923L29.9998 40.9602L37.7717 33.1886L42.2941 37.7063L42.2919 37.7087L29.9998 50.0002L17.7118 37.7122L17.7054 37.7058L22.232 33.1918L22.2315 33.1923ZM40.9599 30.0021L45.48 25.4819L49.9999 30.0017L45.4799 34.5219L40.9599 30.0021Z" fill="white"/>
<path d="M34.5842 29.9977H34.5861L29.9999 25.411L26.6099 28.8001L26.2205 29.1897L25.4173 29.9931L25.4109 29.9993L25.4173 30.0058L29.9999 34.5892L34.5864 30.0025L34.5887 29.9999L34.5845 29.9977" fill="white"/>
</g>
<defs>
<clipPath id="clip0_0_5758">
<rect width="60.0002" height="60" fill="white" transform="translate(-0.000244141)"/>
</clipPath>
</defs>
</svg>
