<svg width="37" height="37" viewBox="0 0 37 37" fill="none" xmlns="http://www.w3.org/2000/svg">
<rect width="37" height="37" rx="18.5" fill="#1E1F25"/>
<path d="M24.2823 23.2309L19.5513 18.5L24.2823 13.7691C24.4217 13.6296 24.5 13.4406 24.5 13.2434C24.5 13.0462 24.4217 12.8571 24.2823 12.7177C24.1428 12.5783 23.9538 12.5 23.7566 12.5C23.5594 12.5 23.3704 12.5783 23.2309 12.7177L18.5 17.4487L13.7691 12.7177C13.6296 12.5783 13.4406 12.5 13.2434 12.5C13.0462 12.5 12.8571 12.5783 12.7177 12.7177C12.5783 12.8571 12.5 13.0462 12.5 13.2434C12.5 13.4406 12.5783 13.6296 12.7177 13.7691L17.4487 18.5L12.7177 23.2309C12.5783 23.3704 12.5 23.5594 12.5 23.7566C12.5 23.9538 12.5783 24.1428 12.7177 24.2823C12.8571 24.4217 13.0462 24.5 13.2434 24.5C13.4406 24.5 13.6296 24.4217 13.7691 24.2823L18.5 19.5513L23.2309 24.2823C23.3704 24.4217 23.5594 24.5 23.7566 24.5C23.9538 24.5 24.1428 24.4217 24.2823 24.2823C24.4217 24.1428 24.5 23.9538 24.5 23.7566C24.5 23.5594 24.4217 23.3704 24.2823 23.2309Z" fill="white"/>
</svg>
