<svg width="17" height="15" viewBox="0 0 17 15" fill="none" xmlns="http://www.w3.org/2000/svg">
<path d="M15.2146 0.160889L9.0155 4.7478L10.1683 2.04459L15.2146 0.160889Z" fill="#E17726" stroke="#E17726" stroke-width="0.115974" stroke-linecap="round" stroke-linejoin="round"/>
<path d="M0.915894 0.160889L7.05983 4.79061L5.96227 2.04458L0.915894 0.160889Z" fill="#E27625" stroke="#E27625" stroke-width="0.115974" stroke-linecap="round" stroke-linejoin="round"/>
<path d="M12.9833 10.7966L11.3339 13.3164L14.8657 14.2888L15.8774 10.8517L12.9833 10.7966Z" fill="#E27625" stroke="#E27625" stroke-width="0.115974" stroke-linecap="round" stroke-linejoin="round"/>
<path d="M0.259644 10.8517L1.26523 14.2888L4.79095 13.3164L3.14765 10.7966L0.259644 10.8517Z" fill="#E27625" stroke="#E27625" stroke-width="0.115974" stroke-linecap="round" stroke-linejoin="round"/>
<path d="M4.60104 6.53992L3.62 8.01998L7.11504 8.17899L6.99855 4.41772L4.60104 6.53992Z" fill="#E27625" stroke="#E27625" stroke-width="0.115974" stroke-linecap="round" stroke-linejoin="round"/>
<path d="M11.5294 6.53977L9.09522 4.37476L9.0155 8.17884L12.5105 8.01983L11.5294 6.53977Z" fill="#E27625" stroke="#E27625" stroke-width="0.115974" stroke-linecap="round" stroke-linejoin="round"/>
<path d="M4.79089 13.316L6.90629 12.2946L5.08522 10.8757L4.79089 13.316Z" fill="#E27625" stroke="#E27625" stroke-width="0.115974" stroke-linecap="round" stroke-linejoin="round"/>
<path d="M9.22449 12.2946L11.3338 13.316L11.0456 10.8757L9.22449 12.2946Z" fill="#E27625" stroke="#E27625" stroke-width="0.115974" stroke-linecap="round" stroke-linejoin="round"/>
<path d="M11.3338 13.317L9.22449 12.2957L9.39615 13.6656L9.37774 14.2466L11.3338 13.317Z" fill="#D5BFB2" stroke="#D5BFB2" stroke-width="0.115974" stroke-linecap="round" stroke-linejoin="round"/>
<path d="M4.79089 13.317L6.75304 14.2466L6.74077 13.6656L6.90629 12.2957L4.79089 13.317Z" fill="#D5BFB2" stroke="#D5BFB2" stroke-width="0.115974" stroke-linecap="round" stroke-linejoin="round"/>
<path d="M6.78968 9.97093L5.03601 9.45722L6.2746 8.88843L6.78968 9.97093Z" fill="#233447" stroke="#233447" stroke-width="0.115974" stroke-linecap="round" stroke-linejoin="round"/>
<path d="M9.3407 9.97093L9.85578 8.88843L11.1005 9.45722L9.3407 9.97093Z" fill="#233447" stroke="#233447" stroke-width="0.115974" stroke-linecap="round" stroke-linejoin="round"/>
<path d="M4.79061 13.3164L5.09721 10.7966L3.14734 10.8517L4.79061 13.3164Z" fill="#CC6228" stroke="#CC6228" stroke-width="0.115974" stroke-linecap="round" stroke-linejoin="round"/>
<path d="M11.0331 10.7966L11.3335 13.3164L12.983 10.8517L11.0331 10.7966Z" fill="#CC6228" stroke="#CC6228" stroke-width="0.115974" stroke-linecap="round" stroke-linejoin="round"/>
<path d="M12.5105 8.02026L9.0155 8.17928L9.34047 9.97127L9.85555 8.88872L11.1003 9.45751L12.5105 8.02026Z" fill="#CC6228" stroke="#CC6228" stroke-width="0.115974" stroke-linecap="round" stroke-linejoin="round"/>
<path d="M5.03641 9.45751L6.27499 8.88872L6.79007 9.97127L7.11504 8.17928L3.62 8.02026L5.03641 9.45751Z" fill="#CC6228" stroke="#CC6228" stroke-width="0.115974" stroke-linecap="round" stroke-linejoin="round"/>
<path d="M3.62 8.02026L5.08547 10.8764L5.03639 9.45751L3.62 8.02026Z" fill="#E27525" stroke="#E27525" stroke-width="0.115974" stroke-linecap="round" stroke-linejoin="round"/>
<path d="M11.101 9.45751L11.0458 10.8764L12.5112 8.02026L11.101 9.45751Z" fill="#E27525" stroke="#E27525" stroke-width="0.115974" stroke-linecap="round" stroke-linejoin="round"/>
<path d="M7.11493 8.17944L6.78992 9.97144L7.20074 12.0875L7.29273 9.29867L7.11493 8.17944Z" fill="#E27525" stroke="#E27525" stroke-width="0.115974" stroke-linecap="round" stroke-linejoin="round"/>
<path d="M9.01534 8.17944L8.84363 9.29258L8.92948 12.0875L9.3403 9.97144L9.01534 8.17944Z" fill="#E27525" stroke="#E27525" stroke-width="0.115974" stroke-linecap="round" stroke-linejoin="round"/>
<path d="M9.34038 9.97152L8.92957 12.0876L9.2239 12.2955L11.045 10.8767L11.1002 9.45776L9.34038 9.97152Z" fill="#F5841F" stroke="#F5841F" stroke-width="0.115974" stroke-linecap="round" stroke-linejoin="round"/>
<path d="M5.03601 9.45776L5.0851 10.8767L6.90617 12.2955L7.2005 12.0876L6.78968 9.97152L5.03601 9.45776Z" fill="#F5841F" stroke="#F5841F" stroke-width="0.115974" stroke-linecap="round" stroke-linejoin="round"/>
<path d="M9.37738 14.2458L9.39574 13.6648L9.23635 13.5302H6.89407L6.74077 13.6648L6.75304 14.2458L4.79089 13.3162L5.47764 13.8788L6.86953 14.839H9.25471L10.6527 13.8788L11.3333 13.3162L9.37738 14.2458Z" fill="#C0AC9D" stroke="#C0AC9D" stroke-width="0.115974" stroke-linecap="round" stroke-linejoin="round"/>
<path d="M9.2244 12.2956L8.93007 12.0876H7.20095L6.90666 12.2956L6.74109 13.6655L6.89439 13.531H9.23667L9.39611 13.6655L9.2244 12.2956Z" fill="white" stroke="white" stroke-width="0.115974" stroke-linecap="round" stroke-linejoin="round"/>
<path d="M15.4787 5.04747L16 2.51551L15.2151 0.160889L9.22449 4.59493L11.53 6.53975L14.7859 7.48774L15.5033 6.64986L15.1906 6.42355L15.6872 5.971L15.3071 5.67743L15.8038 5.29823L15.4787 5.04747Z" fill="#763E1A" stroke="#763E1A" stroke-width="0.115974" stroke-linecap="round" stroke-linejoin="round"/>
<path d="M0.130737 2.51551L0.65806 5.04747L0.320821 5.29823L0.823615 5.67743L0.443452 5.971L0.940115 6.42355L0.6274 6.64986L1.34481 7.48774L4.60074 6.53975L6.90621 4.59493L0.915591 0.160889L0.130737 2.51551Z" fill="#763E1A" stroke="#763E1A" stroke-width="0.115974" stroke-linecap="round" stroke-linejoin="round"/>
<path d="M14.7861 7.48773L11.5302 6.53979L12.5112 8.01985L11.0458 10.8759L12.9834 10.8515H15.8775L14.7861 7.48773Z" fill="#F5841F" stroke="#F5841F" stroke-width="0.115974" stroke-linecap="round" stroke-linejoin="round"/>
<path d="M4.60084 6.53979L1.34495 7.48773L0.259644 10.8515H3.14765L5.08524 10.8759L3.61979 8.01985L4.60084 6.53979Z" fill="#F5841F" stroke="#F5841F" stroke-width="0.115974" stroke-linecap="round" stroke-linejoin="round"/>
<path d="M9.01536 8.17892L9.22384 4.59498L10.1681 2.04468H5.96179L6.90605 4.59498L7.11453 8.17892L7.19425 9.30423L7.20038 12.087H8.92951L8.93564 9.30423L9.01536 8.17892Z" fill="#F5841F" stroke="#F5841F" stroke-width="0.115974" stroke-linecap="round" stroke-linejoin="round"/>
</svg>
