<svg width="20" height="21" viewBox="0 0 20 21" fill="none" xmlns="http://www.w3.org/2000/svg">
<g clip-path="url(#clip0_0_5630)">
<path d="M16.9999 12.75C16.3333 12.9166 15.6666 13 14.9999 13C10.8333 13 7.49994 9.66663 7.49994 5.49996C7.49994 4.83329 7.58327 4.16663 7.74994 3.49996C7.83327 3.24996 7.74994 2.91663 7.49994 2.66663C7.24994 2.41663 6.99994 2.33329 6.66661 2.41663C2.74994 3.58329 -6.10352e-05 7.24996 -6.10352e-05 11.3333C-6.10352e-05 16.4166 4.08327 20.5 9.1666 20.5C13.2499 20.5 16.9166 17.75 17.9999 13.75C18.0833 13.5 17.9999 13.1666 17.7499 12.9166C17.5833 12.75 17.2499 12.6666 16.9999 12.75Z" fill="#808191"/>
<path d="M10.8333 3.83333H11.6666V4.66667C11.6666 5.16667 11.9999 5.5 12.4999 5.5C12.9999 5.5 13.3333 5.16667 13.3333 4.66667V3.83333H14.1666C14.6666 3.83333 14.9999 3.5 14.9999 3C14.9999 2.5 14.6666 2.16667 14.1666 2.16667H13.3333V1.33333C13.3333 0.833333 12.9999 0.5 12.4999 0.5C11.9999 0.5 11.6666 0.833333 11.6666 1.33333V2.16667H10.8333C10.3333 2.16667 9.99994 2.5 9.99994 3C9.99994 3.5 10.3333 3.83333 10.8333 3.83333Z" fill="#808191"/>
<path d="M19.1666 7.16667H18.3333V6.33333C18.3333 5.83333 17.9999 5.5 17.4999 5.5C16.9999 5.5 16.6666 5.83333 16.6666 6.33333V7.16667H15.8333C15.3333 7.16667 14.9999 7.5 14.9999 8C14.9999 8.5 15.3333 8.83333 15.8333 8.83333H16.6666V9.66667C16.6666 10.1667 16.9999 10.5 17.4999 10.5C17.9999 10.5 18.3333 10.1667 18.3333 9.66667V8.83333H19.1666C19.6666 8.83333 19.9999 8.5 19.9999 8C19.9999 7.5 19.6666 7.16667 19.1666 7.16667Z" fill="#808191"/>
</g>
<defs>
<clipPath id="clip0_0_5630">
<rect width="20" height="20" fill="white" transform="translate(-6.10352e-05 0.5)"/>
</clipPath>
</defs>
</svg>
