<svg width="14" height="15" viewBox="0 0 14 15" fill="none" xmlns="http://www.w3.org/2000/svg">
<path fill-rule="evenodd" clip-rule="evenodd" d="M6.97266 0.527344C3.12175 0.527344 0 3.6491 0 7.5C0 11.3509 3.12178 14.4727 6.97266 14.4727C10.8235 14.4727 13.9453 11.3509 13.9453 7.5C13.9453 3.6491 10.8236 0.527344 6.97266 0.527344ZM8.54049 11.7337C8.41632 11.8367 8.27624 11.9288 8.12008 12.0096C7.96395 12.0906 7.79275 12.1552 7.60657 12.2038C7.42038 12.2523 6.96413 12.2766 6.73993 12.2766C6.26743 12.2766 5.9051 12.1643 5.65286 11.9399C5.40061 11.7154 5.14896 11.403 5.14896 11.0027C5.14896 10.84 5.164 10.6449 5.19083 10.4248C5.20278 10.4245 5.70213 7.5408 5.70213 7.5408C5.71413 7.4883 5.7251 7.43369 5.73516 7.37701C5.74509 7.32043 5.75411 7.26687 5.76218 7.21625C5.77016 7.16575 5.77618 7.12225 5.7802 7.08582C5.78413 7.04946 5.78621 7.02321 5.78621 7.00699C5.78621 6.89382 5.77421 6.80282 5.75017 6.73399C5.72614 6.66528 5.68805 6.61267 5.63607 6.5763C5.58398 6.53988 5.51688 6.51562 5.43487 6.50348C5.35276 6.49137 5.25366 6.48527 5.13756 6.48527C5.13756 6.48527 4.72164 6.41533 4.72164 6.13478C4.72164 5.76791 5.28194 5.8241 5.25211 5.8241C5.75523 5.8241 7.08969 5.8241 7.72737 5.8241C8.43916 5.8241 8.05632 7.06786 8.15855 6.58363C7.91153 7.75383 7.59155 9.64449 7.59155 9.64449C7.54351 9.871 7.50343 9.97248 7.47143 10.1686C7.43933 10.3648 7.42339 10.5498 7.42339 10.7237C7.42339 10.9056 7.46036 11.0451 7.53449 11.1422C7.60854 11.2393 7.71364 11.2878 7.84982 11.2878C7.97789 11.2878 8.09605 11.2635 8.20416 11.215C8.39368 11.1299 8.76922 10.8008 8.91937 11.0143C9.11386 11.2909 8.7217 11.583 8.54049 11.7337ZM5.19704 10.3657C5.1943 10.3869 5.19337 10.4041 5.19086 10.4248C5.18993 10.4248 5.19159 10.4077 5.19704 10.3657ZM7.1622 5.25882C6.46901 5.25882 5.90707 4.69128 5.90707 3.99114C5.90707 3.29103 6.46901 2.72346 7.1622 2.72346C7.85537 2.72346 8.41731 3.29103 8.41731 3.99114C8.41731 4.69128 7.85537 5.25882 7.1622 5.25882Z" fill="#30E0A1"/>
</svg>
