<svg width="60" height="60" viewBox="0 0 60 60" fill="none" xmlns="http://www.w3.org/2000/svg">
<path d="M59.9464 29.9895C59.9464 46.4761 46.5822 59.8403 30.0956 59.8403C13.6096 59.8403 0.244873 46.4761 0.244873 29.9895C0.244873 13.5033 13.6096 0.138794 30.0956 0.138794C46.5822 0.138794 59.9464 13.5033 59.9464 29.9895Z" fill="#1BA27A"/>
<path d="M44.1055 15.1913H15.8398V22.0152H26.5607V32.0451H33.3846V22.0152H44.1055V15.1913Z" fill="white"/>
<path d="M30.0375 33.1134C21.1688 33.1134 13.9787 31.7098 13.9787 29.9782C13.9787 28.2468 21.1685 26.843 30.0375 26.843C38.9062 26.843 46.096 28.2468 46.096 29.9782C46.096 31.7098 38.9062 33.1134 30.0375 33.1134ZM48.0688 30.5009C48.0688 28.268 39.996 26.4582 30.0375 26.4582C20.0793 26.4582 12.0059 28.268 12.0059 30.5009C12.0059 32.4671 18.2659 34.1054 26.5611 34.4683V48.8666H33.3844V34.474C41.7435 34.1224 48.0688 32.4773 48.0688 30.5009Z" fill="white"/>
</svg>
