<svg width="21" height="20" viewBox="0 0 21 20" fill="none" xmlns="http://www.w3.org/2000/svg" class="_3sjYcN2hMO5yKJPB8Pk4XQ">
<path d="M20.1389 12.8957H16.0906C14.6042 12.8948 13.3993 11.6909 13.3984 10.2045C13.3984 8.71801 14.6042 7.51409 16.0906 7.51318H20.1389" stroke="currentColor" stroke-width="1.5" stroke-linecap="round" stroke-linejoin="round">
<path d="M16.549 10.1427H16.2373" stroke="currentColor" stroke-width="1.5" stroke-linecap="round" stroke-linejoin="round"></path><path fill-rule="evenodd" clip-rule="evenodd" d="M6.24766 1.5H14.8911C17.7892 1.5 20.1388 3.84951 20.1388 6.74766V13.9247C20.1388 16.8229 17.7892 19.1724 14.8911 19.1724H6.24766C3.34951 19.1724 1 16.8229 1 13.9247V6.74766C1 3.84951 3.34951 1.5 6.24766 1.5Z" stroke="currentColor" stroke-width="1.5" stroke-linecap="round" stroke-linejoin="round"></path><path d="M5.53516 6.0382H10.9341" stroke="currentColor" stroke-width="1.5" stroke-linecap="round" stroke-linejoin="round">
<path fill-rule="evenodd" clip-rule="evenodd" d="M6.24766 1.5H14.8911C17.7892 1.5 20.1388 3.84951 20.1388 6.74766V13.9247C20.1388 16.8229 17.7892 19.1724 14.8911 19.1724H6.24766C3.34951 19.1724 1 16.8229 1 13.9247V6.74766C1 3.84951 3.34951 1.5 6.24766 1.5Z" stroke="currentColor" stroke-width="1.5" stroke-linecap="round" stroke-linejoin="round">
</svg>