<svg width="109" height="26" viewBox="0 0 109 26" fill="none" xmlns="http://www.w3.org/2000/svg">
<rect y="0.125732" width="25.7486" height="25.7486" rx="8.02339" fill="url(#paint0_linear_0_5837)"/>
<path opacity="0.65" d="M7.46167 15.3381V22.0358C9.31023 22.0358 10.8105 20.5355 10.8105 18.6869V11.9893C8.96195 11.9893 7.46167 13.4895 7.46167 15.3381Z" fill="white"/>
<path d="M17.5218 8.64046H7.46191V8.63711C7.46191 6.78856 8.95884 5.29163 10.8074 5.29163H20.8673V5.29497C20.8673 7.14353 19.3704 8.64046 17.5218 8.64046Z" fill="white"/>
<path d="M14.1727 15.3381H7.46167V15.3347C7.46167 13.4862 8.9586 11.9893 10.8072 11.9893H17.5182V11.9926C17.5182 13.8412 16.0213 15.3381 14.1727 15.3381Z" fill="white" fill-opacity="0.75"/>
<path d="M35.7812 20.1098H38.8568V14.851H43.3182V12.5349H38.8568V8.94678H44.4953V6.53571H35.7812V20.1098Z" fill="white"/>
<path d="M50.4563 18.2303C48.8996 18.2303 48.0263 17.0913 48.0263 15.1928V15.0409C48.0263 13.1424 48.9376 12.0413 50.4563 12.0413C51.9941 12.0413 52.8864 13.1804 52.8864 15.0789V15.2118C52.8864 17.0912 51.9941 18.2303 50.4563 18.2303ZM50.4374 20.3187C53.418 20.3187 55.6772 18.3253 55.6772 15.1928V15.0409C55.6772 11.9464 53.4369 9.95297 50.4563 9.95297C47.4757 9.95297 45.2165 11.9843 45.2165 15.0978V15.2497C45.2165 18.3442 47.4757 20.3187 50.4374 20.3187Z" fill="white"/>
<path d="M57.5227 20.1098H60.2755V15.1358C60.2755 13.2373 61.4525 12.5729 63.4839 12.5919V10.0289C61.8702 10.0479 60.902 10.7503 60.2755 12.0793V10.1808H57.5227V20.1098Z" fill="white"/>
<path d="M67.4909 20.1098H70.2247L72.0472 13.8828L73.7369 20.1098H76.4327L79.5652 10.1808H76.9263L75.0468 16.8634L73.3002 10.1808H71.041L69.1236 16.8634L67.358 10.1808H64.4723L67.4909 20.1098Z" fill="white"/>
<path d="M83.467 20.3187C85.0238 20.3187 85.8971 19.7112 86.4666 18.9138V20.1098H89.1435V13.636C89.1435 10.9402 87.4159 9.95297 84.9858 9.95297C82.5557 9.95297 80.6952 10.9971 80.5244 13.3512H83.1253C83.2392 12.4969 83.7328 11.9464 84.8149 11.9464C86.0679 11.9464 86.4286 12.5919 86.4286 13.7689V14.1676H85.3085C82.271 14.1676 80.1447 15.0409 80.1447 17.357C80.1447 19.4454 81.6635 20.3187 83.467 20.3187ZM84.2834 18.4012C83.2772 18.4012 82.8405 17.9266 82.8405 17.2052C82.8405 16.142 83.7708 15.8003 85.3655 15.8003H86.4286V16.6356C86.4286 17.7367 85.4984 18.4012 84.2834 18.4012Z" fill="white"/>
<path d="M91.5062 20.1098H94.259V15.1358C94.259 13.2373 95.436 12.5729 97.4674 12.5919V10.0289C95.8537 10.0479 94.8855 10.7503 94.259 12.0793V10.1808H91.5062V20.1098Z" fill="white"/>
<path d="M102.81 20.3187C104.272 20.3187 105.487 19.4643 105.999 18.4582V20.1098H108.733V5.6814H105.999V11.6616C105.449 10.6554 104.462 9.95297 102.867 9.95297C100.38 9.95297 98.5004 11.8704 98.5004 15.1358V15.2877C98.5004 18.591 100.399 20.3187 102.81 20.3187ZM103.626 18.1734C102.259 18.1734 101.31 17.2052 101.31 15.2307V15.0789C101.31 13.1044 102.165 12.0603 103.702 12.0603C105.202 12.0603 106.075 13.0665 106.075 15.0409V15.1928C106.075 17.2052 105.069 18.1734 103.626 18.1734Z" fill="white"/>
<defs>
<linearGradient id="paint0_linear_0_5837" x1="12.8743" y1="0.125732" x2="12.8743" y2="25.8743" gradientUnits="userSpaceOnUse">
<stop stop-color="#F92974"/>
<stop offset="0.9999" stop-color="#FF6666"/>
</linearGradient>
</defs>
</svg>
